<svg width="64" height="64" viewBox="0 0 64 64" fill="none" xmlns="http://www.w3.org/2000/svg">
<path fill-rule="evenodd" clip-rule="evenodd" d="M0 12C0 5.37258 5.37258 0 12 0H52C58.6274 0 64 5.37258 64 12V52C64 58.6274 58.6274 64 52 64H12C5.37258 64 0 58.6274 0 52V12Z" fill="#FB6D3A" fill-opacity="0.1"/>
<path fill-rule="evenodd" clip-rule="evenodd" d="M32 16C36.2435 16 40.3131 17.6857 43.3137 20.6863C46.3143 23.6869 48 27.7565 48 32C48 40.8366 40.8366 48 32 48C23.152 48 16 40.8 16 32C16 23.1634 23.1634 16 32 16ZM32 44.8C39.0692 44.8 44.8 39.0693 44.8 32C44.8 24.9308 39.0692 19.2 32 19.2C24.9308 19.2 19.2 24.9308 19.2 32C19.2 39.0693 24.9308 44.8 32 44.8ZM32.8 32.4V24H30.4V33.6L38.8 38.64L40 36.672L32.8 32.4Z" fill="#FB6D3A"/>
</svg>
