<svg width="24" height="24" viewBox="0 0 24 24" fill="none" xmlns="http://www.w3.org/2000/svg">
<path fill-rule="evenodd" clip-rule="evenodd" d="M12 0C15.1826 0 18.2348 1.26428 20.4853 3.51472C22.7357 5.76516 24 8.8174 24 12C24 18.6274 18.6274 24 12 24C5.364 24 0 18.6 0 12C0 5.37258 5.37258 0 12 0ZM12 21.6C17.3019 21.6 21.6 17.3019 21.6 12C21.6 6.69807 17.3019 2.4 12 2.4C6.69807 2.4 2.4 6.69807 2.4 12C2.4 17.3019 6.69807 21.6 12 21.6ZM12.6 12.3V6H10.8V13.2L17.1 16.98L18 15.504L12.6 12.3Z" fill="#A3A3A4"/>
</svg>
