<svg width="24" height="24" viewBox="0 0 24 24" fill="none" xmlns="http://www.w3.org/2000/svg">
<path d="M4.25197 10C4.08412 10.6534 3.99945 11.3254 3.99997 12C3.99997 12.69 4.08797 13.36 4.25197 14H7.09997C6.96515 12.6701 6.96515 11.3299 7.09997 10H4.25197ZM5.06997 8H7.41597C7.68197 6.783 8.06597 5.693 8.53697 4.786C7.08515 5.48542 5.87719 6.60523 5.06997 8ZM19.748 10H16.9C17.0348 11.3299 17.0348 12.6701 16.9 14H19.748C20.0846 12.6879 20.0846 11.3121 19.748 10ZM18.93 8C18.1228 6.60523 16.9148 5.48542 15.463 4.786C15.935 5.693 16.318 6.783 16.584 8H18.93ZM9.11197 10C9.03705 10.664 8.99965 11.3318 8.99997 12C8.99997 12.685 9.03797 13.355 9.11197 14H14.888C15.0386 12.6709 15.0386 11.3291 14.888 10H9.11197ZM9.46997 8H14.53C14.348 7.2483 14.0855 6.51841 13.747 5.823C13.119 4.568 12.447 4 12 4C11.552 4 10.881 4.568 10.253 5.823C9.93797 6.455 9.67297 7.19 9.46997 8ZM5.06997 16C5.87719 17.3948 7.08515 18.5146 8.53697 19.214C8.06497 18.307 7.68197 17.217 7.41597 16H5.06997ZM18.93 16H16.584C16.318 17.217 15.934 18.307 15.463 19.214C16.9148 18.5146 18.1228 17.3948 18.93 16ZM9.46997 16C9.67297 16.81 9.93797 17.545 10.253 18.177C10.881 19.432 11.553 20 12 20C12.448 20 13.119 19.432 13.747 18.177C14.062 17.545 14.327 16.81 14.53 16H9.46997ZM12 22C6.47697 22 1.99997 17.523 1.99997 12C1.99997 6.477 6.47697 2 12 2C17.523 2 22 6.477 22 12C22 17.523 17.523 22 12 22Z" fill="#A3A3A4"/>
</svg>
